<?xml version="1.0" standalone="no"?>
<!DOCTYPE svg PUBLIC "-//W3C//DTD SVG 20010904//EN"
 "http://www.w3.org/TR/2001/REC-SVG-20010904/DTD/svg10.dtd">
<svg version="1.0" xmlns="http://www.w3.org/2000/svg"
 width="700.000000pt" height="700.000000pt" viewBox="0 0 700.000000 700.000000"
 preserveAspectRatio="xMidYMid meet">
<metadata>
Created by potrace 1.14, written by Peter Selinger 2001-2017
</metadata>
<g transform="translate(0.000000,700.000000) scale(0.100000,-0.100000)"
fill="#000000" stroke="none">
<path d="M2896 6123 c-1 -1 -17 -5 -36 -8 -161 -28 -271 -73 -386 -158 -33
-24 -166 -149 -295 -277 -324 -324 -415 -379 -694 -425 -16 -2 -180 -5 -365
-5 -184 -1 -357 -6 -385 -11 -27 -6 -61 -12 -75 -15 -14 -3 -49 -14 -78 -24
-269 -100 -461 -305 -549 -587 l-28 -88 0 -1455 0 -1455 22 -81 c94 -349 380
-603 733 -651 30 -4 1272 -7 2760 -7 l2705 0 96 22 c219 52 405 181 535 372
59 87 119 239 132 335 9 65 9 2857 0 2910 -32 192 -120 358 -259 491 -141 133
-289 204 -504 239 -16 2 -181 5 -365 6 -407 1 -476 11 -647 97 -99 51 -178
117 -400 338 -231 231 -247 245 -316 293 -93 63 -253 124 -365 137 -48 6
-1230 13 -1236 7z m1213 -449 c110 -25 152 -55 367 -269 110 -110 229 -226
263 -258 124 -114 291 -210 461 -265 188 -61 221 -65 622 -68 234 -2 383 -7
410 -14 153 -41 283 -174 319 -325 8 -37 11 -416 12 -1415 0 -1265 -1 -1369
-17 -1425 -46 -157 -175 -278 -334 -314 -58 -12 -5348 -12 -5417 0 -161 30
-294 153 -341 314 -16 56 -17 162 -17 1430 0 1484 -2 1406 53 1515 28 56 103
135 156 166 106 62 127 65 483 66 384 1 475 9 618 53 118 36 156 51 246 97
136 70 250 164 499 411 255 253 304 289 414 306 27 4 294 7 594 8 442 1 557
-1 609 -13z"/>
<path d="M3325 4804 c-380 -56 -699 -217 -940 -476 -214 -230 -336 -480 -401
-818 -13 -69 -12 -364 1 -450 26 -170 71 -312 142 -455 45 -90 132 -228 173
-275 12 -14 38 -45 58 -69 56 -67 200 -191 298 -256 154 -103 345 -183 524
-220 120 -25 127 -26 285 -30 266 -7 473 38 710 154 157 77 276 162 405 291
201 201 326 418 400 695 38 142 44 196 44 390 1 179 -5 228 -39 365 -48 192
-113 334 -228 503 -108 159 -313 352 -462 437 -191 109 -319 156 -560 206 -37
7 -369 14 -410 8z m320 -439 c152 -20 324 -85 460 -173 84 -54 246 -214 298
-294 128 -196 188 -394 188 -616 0 -446 -251 -822 -676 -1013 -57 -26 -157
-52 -280 -74 -42 -7 -222 -7 -270 0 -210 33 -376 102 -533 222 -201 154 -359
405 -402 641 -5 32 -12 68 -15 82 -8 36 -8 227 0 285 27 215 134 439 290 604
183 194 427 315 680 337 39 4 71 7 72 8 5 4 144 -3 188 -9z"/>
<path d="M1028 4364 c-80 -24 -144 -106 -152 -194 -13 -157 159 -277 306 -213
162 72 173 302 18 387 -57 31 -112 37 -172 20z"/>
</g>
</svg>
